<svg width="800" height="800" viewBox="0 0 800 800" xmlns="http://www.w3.org/2000/svg">
  <rect width="800" height="800" fill="#f6f6f6"/>
  <rect x="170" y="290" width="460" height="220" rx="26" fill="#ececec" stroke="#1a1a1a" stroke-width="14"/>
  <g fill="#1a1a1a">
    <rect x="210" y="330" width="44" height="32" rx="6"/>
    <rect x="264" y="330" width="44" height="32" rx="6"/>
    <rect x="318" y="330" width="44" height="32" rx="6"/>
    <rect x="372" y="330" width="44" height="32" rx="6"/>
    <rect x="426" y="330" width="44" height="32" rx="6"/>
    <rect x="480" y="330" width="44" height="32" rx="6"/>
    <rect x="534" y="330" width="44" height="32" rx="6"/>
    <rect x="210" y="375" width="60" height="32" rx="6"/>
    <rect x="280" y="375" width="44" height="32" rx="6"/>
    <rect x="334" y="375" width="44" height="32" rx="6"/>
    <rect x="388" y="375" width="44" height="32" rx="6"/>
    <rect x="442" y="375" width="44" height="32" rx="6"/>
    <rect x="496" y="375" width="82" height="32" rx="6"/>
    <rect x="210" y="420" width="86" height="32" rx="6"/>
    <rect x="306" y="420" width="218" height="32" rx="6"/>
    <rect x="534" y="420" width="44" height="32" rx="6"/>
  </g>
  <text x="400" y="700" text-anchor="middle" font-family="Inter, sans-serif" font-size="30" fill="#6b7280">Teclado compacto</text>
</svg>
